# xmcd
#
# Track frame offsets:
#	150
#	13872
#	27074
#	45474
#	64620
#	76528
#	94657
#	110585
#	129647
#	143739
#	158360
#	176073
#	193162
#	214841
#	237312
#	252182
#	266255
#	292295
#
# Disc length: 3903 seconds
#
# Revision: 0
# Processed by: cddbd v1.5.2PL0 Copyright (c) Steve Scherf et al.
# Submitted via: audiograbber 1.83.01
#
DISCID=f40f3d12
DTITLE=Top Tunes Karaoke - Karaoke Gal Country Disc 1 of 2
DYEAR=1900
DGENRE=Karaoke
TTITLE0=Irene Kelly - A little Bluer Than That 
TTITLE1=Merideth Edwards- A Rose is a Rose
TTITLE2=Shannon Brown - Baby I Lied
TTITLE3=Martina Mcbride - Blessed
TTITLE4=Patty Loveless - Boys are back in town
TTITLE5=Jo Dee Messina Tim Mcgraw - Bring on the Rain
TTITLE6=Lee Ann Womack - Does My Ring Burn your Finger
TTITLE7=Carolyn Dawn Johnson - Georgia
TTITLE8=Terri Clark - Getting There
TTITLE9=Cyndi Thomson - I Always Like that Best
TTITLE10=Chely Wright - I Could never love you enough
TTITLE11=Carolyn Dawn Johnson - I dont want you to go
TTITLE12=Sara Evans - I Keep Looking
TTITLE13=Lee Ann Womack - I Know Why the river Runs
TTITLE14=The Wilkensons - I wanna Be That Girl
TTITLE15=Reba McINtyre - Im A Survivor
TTITLE16=Chely Wright - Jezebel
TTITLE17=Data Track
EXTD=Disc 1 of 2 Karaoke CDG
EXTT0=
EXTT1=
EXTT2=
EXTT3=
EXTT4=
EXTT5=
EXTT6=
EXTT7=
EXTT8=
EXTT9=
EXTT10=
EXTT11=
EXTT12=
EXTT13=
EXTT14=
EXTT15=
EXTT16=
EXTT17=
PLAYORDER=
